Coordinates
version=1
nRows=8
nColumns=36
inDegrees=yes

Units are S.I. units (second, meters, Newtons, ...)
If the header above contains a line with 'inDegrees', this indicates whether rotational values are in degrees (yes) or radians (no).

endheader
time	pelvis_tilt	pelvis_list	pelvis_rotation	pelvis_tx	pelvis_ty	pelvis_tz	hip_flexion_r	hip_adduction_r	hip_rotation_r	knee_angle_r	knee_angle_r_beta	ankle_angle_r	subtalar_angle_r	mtp_angle_r	hip_flexion_l	hip_adduction_l	hip_rotation_l	knee_angle_l	knee_angle_l_beta	ankle_angle_l	subtalar_angle_l	mtp_angle_l	lumbar_extension	lumbar_bending	lumbar_rotation	arm_flex_r	arm_add_r	arm_rot_r	elbow_flex_r	pro_sup_r	arm_flex_l	arm_add_l	arm_rot_l	elbow_flex_l	pro_sup_l
      2.92083330	    -12.84365611	      1.81824710	      1.86884602	      0.36201700	      1.32004845	     -0.08271621	     13.92634481	    -10.22434036	    -10.13974800	      4.21641413	      0.07359031	    -37.52377102	      1.88636731	     -7.49999987	     14.82149615	     -3.86071765	     -2.77590653	      5.11462462	      0.08926704	    -40.87518581	     -9.02483529	     -7.49999987	     -3.30081284	     -2.60953915	     -2.75695513	     39.26550283	    -17.97670211	     64.89886774	     90.08786671	     90.81166293	     40.74101737	    -15.06612844	     60.37752121	     39.78532856	     64.21826299
      2.92500000	    -12.69866951	      1.83111819	      2.02194916	      0.36207460	      1.31700793	     -0.08294376	     13.84220889	    -10.26328149	     -9.80107307	      4.22042946	      0.07366039	    -37.23480452	      1.75795509	     -7.49999987	     14.85306448	     -3.85728726	     -3.16965917	      5.16347966	      0.09011972	    -40.84674078	     -9.12234737	     -7.49999987	     -3.70838180	     -2.50687415	     -3.36032703	     39.46453918	    -17.74633267	     64.69315694	     90.27590484	     89.73064153	     39.89758553	    -15.23642607	     58.82870296	     39.90183773	     63.94004130
      2.92916670	    -12.62143326	      2.02473101	      2.20310177	      0.36208100	      1.31637572	     -0.08267548	     13.77658456	    -10.45019071	     -9.70490430	      4.04926844	      0.07067307	    -36.44865694	      1.94849396	     -7.49999987	     14.77871937	     -3.69138752	     -3.86617778	      4.97627086	      0.08685231	    -40.85615047	     -8.61018877	     -7.49999987	     -4.06170162	     -2.79921745	     -3.54671314	     39.61717840	    -17.61316279	     64.90374703	     90.14613307	     88.56699886	     39.79174989	    -15.22275044	     58.67204768	     39.84432160	     63.66140122
      2.93333330	    -12.53930966	      2.26225702	      2.30520742	      0.36194532	      1.31258489	     -0.08327772	     13.62029467	    -10.72053013	     -9.84742849	      3.83875911	      0.06699899	    -35.84136427	      2.00007131	     -7.49999987	     14.81772671	     -3.51369560	     -4.56534937	      5.03991027	      0.08796303	    -40.57730502	     -8.19657327	     -7.49999987	     -4.35033309	     -3.20819053	     -3.41030534	     39.42761271	    -17.72755767	     64.60417224	     89.67920036	     90.91824148	     39.96467113	    -15.11234370	     59.72086684	     39.65939978	     64.13539411
      2.93750000	    -12.41706083	      2.28428949	      2.30252513	      0.36176086	      1.30869460	     -0.08328789	     13.56926820	    -10.71947236	     -9.83348779	      3.78712944	      0.06609788	    -35.12070249	      2.30628070	     -7.49999987	     14.79194007	     -3.63670670	     -5.13726898	      4.89908676	      0.08550519	    -40.33841802	     -8.06628687	     -7.49999987	     -4.61287287	     -3.20518404	     -3.31720859	     39.56953616	    -17.78335336	     64.71168263	     88.95300394	     90.79679423	     39.86833443	    -15.21229832	     59.79428134	     39.91524586	     64.20250110
      2.94166670	    -12.26810009	      2.37219130	      2.18102302	      0.36195169	      1.30535228	     -0.08297732	     13.58341674	    -10.72278316	     -9.95326809	      3.90992070	      0.06824099	    -34.44104350	      2.56906450	     -7.49999987	     14.83016684	     -3.73930228	     -5.42404608	      4.98410788	      0.08698909	    -39.93629605	     -7.64531078	     -7.49999987	     -4.90938190	     -3.42421404	     -3.09572528	     39.91954242	    -17.74028586	     65.40396687	     88.33064746	     90.43211870	     39.77808890	    -15.35310962	     59.98452820	     40.58025949	     64.28742112
      2.94583330	    -12.08813114	      2.48930108	      2.13839728	      0.36178081	      1.30163914	     -0.08265591	     13.69566066	    -10.78362932	    -10.02165077	      4.13762913	      0.07221525	    -33.50485333	      3.13267603	     -7.49999987	     14.94328741	     -3.72424579	     -5.30029592	      5.15419966	      0.08995775	    -39.83173569	     -7.73083049	     -7.49999987	     -5.17942813	     -3.68215625	     -2.55198132	     39.67083939	    -17.94536254	     65.14239716	     88.23165264	     91.17462231	     40.37299465	    -15.18555930	     62.16180771	     40.98111062	     64.55687136
      2.95000000	    -12.00660638	      2.49224249	      2.03504045	      0.35790655	      1.29009383	     -0.08676657	     14.19202411	    -10.89918064	     -9.07887407	      4.75299874	      0.08295548	    -32.28957106	      3.89817873	     -7.49999987	     15.45313597	     -3.73716962	     -4.61520309	      5.65904777	      0.09876902	    -39.36635955	     -7.79419899	     -7.49999987	     -5.35663693	     -3.44203238	     -2.38080325	     40.29161968	    -18.14940646	     65.54220325	     88.44317560	     90.42636794	     40.55192887	    -14.91711756	     62.09790702	     41.20762449	     64.37227351
